<?xml version="1.0" encoding="utf-8"?><svg viewBox="0 0 80 84" xmlns="http://www.w3.org/2000/svg" xmlns:xlink="http://www.w3.org/1999/xlink"><style>:root>svg{display:none}:root>svg:target{display:block}</style><svg viewBox="0 0 27 34" id="htmlacademy" xmlns="http://www.w3.org/2000/svg"><path d="M13.643.016L13.5 0 0 1.407v24.606L13.5 34 27 26.013V1.407L13.643.016zm11.591 25L13.5 31.956 1.766 25.015V14.93l11.685 6.916.02 1.253-8.017-4.743-.011 1.225 8.046 4.809.02 1.286-8.045-4.758-.01 1.226L13.5 26.95l8.124-4.833V16.91l3.62-2.15-.01 10.256zm0-11.564l-3.22 1.88-1.482.875-7.065-4.187-.011 1.225 6.04 3.573-.053.031-.13.076-.86.492-4.986-2.948-.011 1.225 3.936 2.328-.933.61-.021.012-2.971-1.742-.011 1.225 1.947 1.135-1.988 1.186-11.618-6.872 11.638-6.958 11.8 6.834zm0-1.225L13.44 5.31 1.766 12.22V2.99L13.5 1.764 25.234 2.99v9.237z"/></svg><svg viewBox="0 0 22 22" id="icon-fb" xmlns="http://www.w3.org/2000/svg"><path d="M16.5 1.833h-2.75a4.63 4.63 0 00-3.24 1.317 4.45 4.45 0 00-1.343 3.177v2.697h-2.75v3.595h2.75v7.191h3.666v-7.19h2.75l.917-3.596h-3.667V6.327a.89.89 0 01.269-.635.926.926 0 01.648-.263h2.75V1.833z"/></svg><svg viewBox="0 0 20 20" id="icon-insta" xmlns="http://www.w3.org/2000/svg"><path d="M9.98.078c1.667 0 3.028.02 4.082.059.899.039 1.7.195 2.403.468.677.26 1.263.638 1.758 1.133.494.495.872 1.081 1.133 1.758.273.703.43 1.504.468 2.402.04 1.055.059 2.416.059 4.082 0 1.667-.02 3.028-.059 4.082-.039.899-.195 1.7-.469 2.403a4.985 4.985 0 01-1.132 1.758 4.985 4.985 0 01-1.758 1.133c-.703.273-1.504.43-2.402.468-1.055.04-2.416.059-4.083.059-1.666 0-3.027-.02-4.082-.059-.898-.039-1.699-.195-2.402-.469a4.985 4.985 0 01-1.758-1.132 4.984 4.984 0 01-1.133-1.758c-.273-.703-.43-1.504-.468-2.402-.04-1.055-.059-2.416-.059-4.083 0-1.666.02-3.027.059-4.082C.176 5 .332 4.2.605 3.496a4.984 4.984 0 011.133-1.758A4.984 4.984 0 013.496.605C4.2.332 5 .175 5.898.137 6.953.097 8.314.078 9.98.078zm0 1.29c-1.731 0-3.144.019-4.238.058a6.27 6.27 0 00-1.953.37A3.566 3.566 0 001.797 3.79a6.27 6.27 0 00-.371 1.953 123.51 123.51 0 00-.059 4.238c0 1.732.02 3.145.059 4.239a6.27 6.27 0 00.37 1.953 3.566 3.566 0 001.993 1.992c.599.221 1.25.345 1.953.371a123.7 123.7 0 004.238.059c1.732 0 3.145-.02 4.239-.059a6.274 6.274 0 001.953-.37 3.567 3.567 0 001.992-1.993c.221-.6.345-1.25.371-1.953.04-1.094.059-2.507.059-4.239 0-1.731-.02-3.144-.059-4.238a6.273 6.273 0 00-.37-1.953 3.566 3.566 0 00-1.993-1.992 6.27 6.27 0 00-1.953-.371c-1.094-.04-2.507-.059-4.239-.059zm0 12.577c1.094 0 2.028-.387 2.803-1.162.775-.774 1.162-1.709 1.162-2.803 0-1.093-.387-2.028-1.162-2.802-.774-.775-1.709-1.162-2.803-1.162-1.093 0-2.028.387-2.802 1.162-.775.774-1.162 1.709-1.162 2.802 0 1.094.387 2.028 1.162 2.803.774.775 1.709 1.162 2.802 1.162zm0-9.043c1.407 0 2.605.495 3.594 1.485.99.99 1.485 2.187 1.485 3.593 0 1.407-.495 2.605-1.485 3.594-.99.99-2.187 1.485-3.594 1.485-1.406 0-2.604-.495-3.593-1.485-.99-.99-1.485-2.187-1.485-3.594 0-1.406.495-2.604 1.485-3.593.99-.99 2.187-1.485 3.593-1.485zm6.485-.195c0 .326-.117.602-.352.83-.234.228-.52.342-.86.342a1.13 1.13 0 01-.83-.342 1.13 1.13 0 01-.341-.83c0-.339.114-.625.342-.86.228-.234.504-.35.83-.35.325 0 .609.12.85.36.24.241.36.525.36.85z"/></svg><svg fill="none" viewBox="0 0 19 14" id="icon-mail" xmlns="http://www.w3.org/2000/svg"><path stroke="#222" stroke-width="1.3" d="M1.111 6v8M18.111 6v8M.461 13.35h18M.461 1.35h18M17.811 3.182l-8.35 6.495-8.35-6.495V1.65h16.7v1.532z"/></svg><svg fill="none" viewBox="0 0 20 20" id="icon-phone" xmlns="http://www.w3.org/2000/svg"><g clip-path="url(#eclip0)" fill="#000"><path d="M17.9 9.4H9.4v1.2h8.5l-2.1 2.1.9.9 3.1-3.1a.75.75 0 000-.9l-3.1-3.1-.9.9 2.1 2zM8.1 19.4v-6.2a.65.65 0 00-.6-.6H3.1a1.22 1.22 0 001.2 1.2h2.5v5H3.1a1.789 1.789 0 01-1.9-1.7v-14a1.77 1.77 0 011.7-1.8h3.9v5H4.4a1.22 1.22 0 00-1.2 1.2h4.4a.65.65 0 00.6-.6V.6a.86.86 0 00-.7-.6H3.1A3 3 0 000 2.9v13.9a2.89 2.89 0 002.9 3.1h4.6a.5.5 0 00.6-.5z"/></g><defs><clipPath id="eclip0"><path fill="#fff" d="M0 0h20v20H0z"/></clipPath></defs></svg><svg version="1.1" id="icon-plus" x="0" y="0" viewBox="0 0 60 60" xml:space="preserve" xmlns="http://www.w3.org/2000/svg"><style>.fst0{fill:#222}</style><path class="fst0" d="M60 29.5H30.5V0h-1v29.5H0v1h29.5V60h1V30.5H60z"/></svg><svg version="1.1" id="icon-plus-mobile" x="0" y="0" viewBox="0 0 30 30" xml:space="preserve" xmlns="http://www.w3.org/2000/svg"><style>.gst0{fill:#222}</style><path class="gst0" d="M30 14H16V0h-2v14H0v2h14v14h2V16h14z"/></svg><svg fill="none" viewBox="0 0 32 12" id="icon-right-arrow-long" xmlns="http://www.w3.org/2000/svg"><path stroke="#000" stroke-width="2" d="M0 6h18"/><path d="M24 6l-6.75 5.196V.804L24 6z" fill="#000"/></svg><svg fill="none" viewBox="0 0 32 12" id="icon-right-arrow-verylong" xmlns="http://www.w3.org/2000/svg"><path stroke="#000" stroke-width="2" d="M0 6h26"/><path d="M32 6l-6.75 5.196V.804L32 6z" fill="#000"/></svg><svg fill="none" viewBox="0 0 26 26" id="icon-tick" xmlns="http://www.w3.org/2000/svg"><path d="M11 17.718L5.3 11.27l-1.05 1.187L11 20.094 22.25 7.366 21.2 6.094 11 17.718z" fill="#68B738"/></svg><svg viewBox="0 0 28 22" id="icon-vk" xmlns="http://www.w3.org/2000/svg"><path d="M.085 5.49c0-.855.515-1.316 1.546-1.383l3.97.025a.52.52 0 01.532.377C6.542 5.767 7 6.852 7.505 7.766c.507.913 1.168 1.966 1.985 3.156.071.15.187.226.347.226.124 0 .222-.059.293-.176l.08-.277.026-4.35c0-.302-.075-.503-.226-.604-.151-.1-.43-.176-.84-.226-.319-.05-.479-.235-.479-.553 0-.067.009-.118.027-.151.373-1.09 1.438-1.635 3.197-1.635l1.492-.025c.675 0 1.234.16 1.678.478.444.318.667.821.667 1.509v5.708a.63.63 0 00.346.126c.266 0 .497-.15.693-.452 1.953-2.582 3.01-4.31 3.17-5.181 0-.017.018-.059.054-.126.124-.251.328-.47.612-.654.285-.184.533-.31.746-.377a.555.555 0 01.24-.05h4.13l.266.025c.355 0 .63.16.826.478.071.1.12.21.147.327.026.117.044.234.053.352.009.117.013.184.013.201v.176c-.124.687-.44 1.42-.945 2.2-.507.78-1.15 1.623-1.932 2.528s-1.27 1.5-1.466 1.785c-.16.202-.24.386-.24.554 0 .134.072.285.214.452l3.89 4.627c.213.269.32.562.32.88 0 .386-.16.705-.48.956-.32.252-.702.394-1.146.428l-.453.025h-4.05a.875.875 0 00-.106.012.862.862 0 01-.107.013c-.39 0-.755-.16-1.092-.478-.124-.134-.96-1.123-2.504-2.967a1.384 1.384 0 00-.373-.327c-.072.268-.165.654-.28 1.157-.116.503-.2.863-.253 1.081l-.08.428c-.178.586-.55.938-1.12 1.056l-.372.025h-2.611c-1.475 0-2.944-.637-4.41-1.911-1.465-1.274-2.784-2.922-3.956-4.942C2.323 11.253 1.23 8.902.219 6.22a1.916 1.916 0 01-.134-.73zm16.013 6.513c-.373 0-.71-.096-1.012-.289-.303-.193-.454-.457-.454-.792V5.138c0-.335-.088-.574-.266-.717-.178-.142-.488-.214-.932-.214l-1.52.05c-.763 0-1.34.126-1.73.378.78.352 1.171.922 1.171 1.71v4.426a1.5 1.5 0 01-.532 1.044 1.59 1.59 0 01-1.066.415c-.533 0-.942-.244-1.226-.73-1.385-1.978-2.415-3.856-3.09-5.633l-.24-.654-3.544-.025c-.23 0-.36.013-.386.038-.027.025-.04.096-.04.214 0 .15.018.31.053.477l.56 1.409c1.492 3.638 3.113 6.505 4.862 8.6 1.75 2.096 3.468 3.144 5.156 3.144h2.664c.107 0 .187-.03.24-.088.053-.059.097-.172.133-.34l.053-.251.507-2.213c.142-.302.266-.503.373-.604a.976.976 0 01.692-.276c.427 0 .862.243 1.306.729l2.264 2.716c.142.218.293.327.453.327h4.396c.533 0 .8-.126.8-.378a.465.465 0 00-.08-.25L21.8 13.888c-.302-.352-.453-.729-.453-1.131 0-.403.142-.788.426-1.157.23-.336.68-.893 1.345-1.673a37.63 37.63 0 001.745-2.187c.498-.68.826-1.295.986-1.849l.08-.327a.37.37 0 01-.026-.163.574.574 0 00-.027-.189h-4.183c-.266.1-.48.252-.64.453l-.16.478c-.443 1.157-1.607 2.942-3.49 5.356a1.892 1.892 0 01-1.305.503z"/></svg><svg fill="none" viewBox="0 0 19 14" id="icon_email" xmlns="http://www.w3.org/2000/svg"><path stroke="#68B738" stroke-width="1.3" d="M1.179 6v8M18.179 6v8M.529 13.35h18M.529 1.35h18M17.88 3.182L9.53 9.677 1.18 3.182V1.65h16.7v1.532z"/></svg><svg fill="none" viewBox="0 0 19 14" id="icon_emailErr" xmlns="http://www.w3.org/2000/svg"><path stroke="#FF8282" stroke-width="1.3" d="M.65 6v8M17.65 6v8M0 13.35h18M0 1.35h18M17.35 3.182L9 9.677.65 3.182V1.65h16.7v1.532z"/></svg><svg fill="none" viewBox="0 0 80 84" id="icon_gift" xmlns="http://www.w3.org/2000/svg"><path d="M65.657 36.757H14.391a3.266 3.266 0 01-3.263-3.262v-9.772a3.267 3.267 0 013.263-3.263h51.265a3.266 3.266 0 013.262 3.263v9.773a3.264 3.264 0 01-3.26 3.261zM14.391 22.96a.773.773 0 00-.763.763v9.773c0 .42.342.762.763.762h51.265c.42 0 .762-.342.762-.762v-9.773a.772.772 0 00-.762-.763H14.391z" fill="#fff"/><path d="M58.508 70.236h-36.97a6.289 6.289 0 01-6.282-6.282V35.507a1.25 1.25 0 012.5 0v28.447a3.786 3.786 0 003.782 3.782h36.97a3.786 3.786 0 003.78-3.782V35.507a1.25 1.25 0 012.5 0v28.447a6.288 6.288 0 01-6.28 6.282z" fill="#fff"/><path d="M40.023 70.236c-.69 0-1.25-.56-1.25-1.25V35.507a1.25 1.25 0 012.5 0v33.478c0 .692-.56 1.251-1.25 1.251zM24.422 22.956c-3.913-2.12-5.373-7.027-3.255-10.94 2.117-3.912 7.024-5.372 10.938-3.256C38.07 11.99 41.29 21 41.422 21.383l-2.358.83c-.03-.086-3.038-8.486-8.148-11.255a5.578 5.578 0 00-7.55 2.247 5.58 5.58 0 002.248 7.553l-1.192 2.198z" fill="#fff"/><path d="M55.622 22.956l-1.19-2.199a5.541 5.541 0 002.688-3.31 5.53 5.53 0 00-.441-4.241 5.527 5.527 0 00-3.309-2.688 5.533 5.533 0 00-4.24.44c-5.11 2.768-8.118 11.169-8.148 11.254l-2.358-.83C38.758 21 41.977 11.99 47.94 8.76a8.015 8.015 0 016.144-.638 8.01 8.01 0 014.794 3.893 8.013 8.013 0 01.639 6.144 8.028 8.028 0 01-3.895 4.797zM63.538 53.497H16.506a1.25 1.25 0 010-2.5h47.032a1.25 1.25 0 010 2.5z" fill="#fff"/></svg><svg fill="none" viewBox="0 0 20 20" id="icon_phone" xmlns="http://www.w3.org/2000/svg"><g clip-path="url(#oclip0)" fill="#68B738"><path d="M17.9 9.4H9.4v1.2h8.5l-2.1 2.1.9.9 3.1-3.1a.75.75 0 000-.9l-3.1-3.1-.9.9 2.1 2zM8.1 19.4v-6.2a.65.65 0 00-.6-.6H3.1a1.22 1.22 0 001.2 1.2h2.5v5H3.1a1.789 1.789 0 01-1.9-1.7v-14a1.77 1.77 0 011.7-1.8h3.9v5H4.4a1.22 1.22 0 00-1.2 1.2h4.4a.65.65 0 00.6-.6V.6a.86.86 0 00-.7-.6H3.1A3 3 0 000 2.9v13.9a2.89 2.89 0 002.9 3.1h4.6a.5.5 0 00.6-.5z"/></g><defs><clipPath id="oclip0"><path fill="#fff" d="M0 0h20v20H0z"/></clipPath></defs></svg><svg fill="none" viewBox="0 0 20 20" id="icon_phoneErr" xmlns="http://www.w3.org/2000/svg"><g clip-path="url(#pclip0)" fill="#FF8282"><path d="M17.9 9.4H9.4v1.2h8.5l-2.1 2.1.9.9 3.1-3.1a.75.75 0 000-.9l-3.1-3.1-.9.9 2.1 2zM8.1 19.4v-6.2a.65.65 0 00-.6-.6H3.1a1.22 1.22 0 001.2 1.2h2.5v5H3.1a1.789 1.789 0 01-1.9-1.7v-14a1.77 1.77 0 011.7-1.8h3.9v5H4.4a1.22 1.22 0 00-1.2 1.2h4.4a.65.65 0 00.6-.6V.6a.86.86 0 00-.7-.6H3.1A3 3 0 000 2.9v13.9a2.89 2.89 0 002.9 3.1h4.6a.5.5 0 00.6-.5z"/></g><defs><clipPath id="pclip0"><path fill="#fff" d="M0 0h20v20H0z"/></clipPath></defs></svg></svg>